<svg width="33" height="33" viewBox="0 0 330 336" fill="none" xmlns="http://www.w3.org/2000/svg">
<path d="M113.329 184.085V246.638C114.201 246.638 108.811 246.638 74.0269 247.532C158.187 335.223 223.85 283.907 247.054 247.369H213.608V205.557H202.828V162.638L188.635 172.468V153.011H184.176V246.638L181.946 246.638L182.838 147.447L179.275 147.361L173.78 147.361V246.638H169.459V156.683L146.27 147.361V177.872L126.152 164.426V192.28L113.329 184.085Z" fill="url(#paint0_linear_0_1)"/>
<path d="M126.152 192.28L113.329 184.085V246.638C114.201 246.638 108.811 246.638 74.0269 247.532C158.187 335.223 223.85 283.907 247.054 247.369H213.608V205.557H202.828M126.152 192.28V246.638M126.152 192.28V164.426L146.27 177.872M146.27 177.872V246.638M146.27 177.872V147.361L169.459 156.683V246.638H173.78V147.361L179.275 147.361M179.275 147.361V246.638M179.275 147.361L182.838 147.447L181.946 246.638L184.176 246.638V153.011H188.635V172.468L202.828 162.638V205.557M202.828 205.557V246.638" stroke="white"/>
<path d="M308.959 85.9064C330.162 124.453 335.599 169.952 324.093 212.551C312.586 255.149 285.062 291.418 247.481 313.504C209.9 335.589 165.287 341.712 123.304 330.547C81.3207 319.383 45.3467 291.829 23.1723 253.853C0.997853 215.877 -5.59195 170.536 4.82992 127.649C15.2518 84.7622 41.8464 47.7811 78.8545 24.7148C115.863 1.64849 160.305 -5.64636 202.557 4.41004C244.81 14.4664 281.471 41.0646 304.602 78.4444L284.292 91.4735C264.526 59.532 233.199 36.8035 197.093 28.2102C160.988 19.6169 123.011 25.8504 91.3875 45.5609C59.7636 65.2714 37.0382 96.8722 28.1325 133.52C19.2269 170.167 24.858 208.912 43.8063 241.363C62.7547 273.814 93.4949 297.359 129.37 306.899C165.245 316.439 203.367 311.207 235.481 292.335C267.594 273.463 291.114 242.47 300.947 206.069C310.779 169.668 306.133 130.788 288.015 97.8499L308.959 85.9064Z" fill="#212529"/>
<path d="M45.5372 227.998C29.7275 196.514 26.8847 160.07 37.6204 126.507C48.3561 92.9447 71.8123 64.9455 102.942 48.5341C134.072 32.1227 170.388 28.6107 204.076 38.7537C237.764 48.8967 266.132 71.8841 283.076 102.77C300.021 133.656 304.187 169.972 294.68 203.904C285.172 237.837 262.75 266.674 232.237 284.211C201.725 301.748 165.561 306.584 131.526 297.678C97.4918 288.772 68.3065 266.835 50.25 236.589L68.3709 225.729C83.5871 251.218 108.181 269.703 136.862 277.208C165.543 284.714 196.018 280.639 221.731 265.86C247.443 251.082 266.338 226.781 274.35 198.186C282.362 169.591 278.851 138.988 264.572 112.961C250.294 86.9333 226.388 67.562 197.999 59.0146C169.611 50.4671 139.007 53.4267 112.774 67.2565C86.5414 81.0863 66.775 104.681 57.7281 132.964C48.6812 161.247 51.0768 191.959 64.3995 218.49L45.5372 227.998Z" fill="#095C41"/>
<rect x="189.081" y="174.255" width="1.78378" height="1.78723" fill="white"/>
<rect x="191.757" y="174.255" width="1.78378" height="1.78723" fill="white"/>
<rect x="189.081" y="176.936" width="1.78378" height="1.78723" fill="white"/>
<rect x="191.757" y="176.936" width="1.78378" height="1.78723" fill="white"/>
<rect x="206.027" y="208.213" width="1.78378" height="1.78723" fill="white"/>
<rect x="208.703" y="208.213" width="1.78378" height="1.78723" fill="white"/>
<rect x="206.027" y="210.894" width="1.78378" height="1.78723" fill="white"/>
<rect x="208.703" y="210.894" width="1.78378" height="1.78723" fill="white"/>
<rect x="194.433" y="174.255" width="1.78378" height="1.78723" fill="white"/>
<rect x="197.108" y="174.255" width="1.78378" height="1.78723" fill="white"/>
<rect x="194.433" y="176.936" width="1.78378" height="1.78723" fill="white"/>
<rect x="197.108" y="176.936" width="1.78378" height="1.78723" fill="white"/>
<rect x="175.703" y="149.234" width="1.78378" height="1.78723" fill="white"/>
<rect x="180.162" y="149.234" width="1.78378" height="1.78723" fill="white"/>
<rect x="185.513" y="154.596" width="1.78378" height="1.78723" fill="white"/>
<rect x="148.946" y="159.064" width="1.78378" height="1.78723" fill="white"/>
<rect x="151.622" y="159.064" width="1.78378" height="1.78723" fill="white"/>
<rect x="154.297" y="159.064" width="1.78378" height="1.78723" fill="white"/>
<rect x="156.973" y="159.064" width="1.78378" height="1.78723" fill="white"/>
<rect x="159.648" y="159.064" width="1.78378" height="1.78723" fill="white"/>
<rect x="162.324" y="159.064" width="1.78378" height="1.78723" fill="white"/>
<rect x="165" y="159.064" width="1.78378" height="1.78723" fill="white"/>
<rect x="148.946" y="161.745" width="1.78378" height="1.78723" fill="white"/>
<rect x="151.622" y="161.745" width="1.78378" height="1.78723" fill="white"/>
<rect x="154.297" y="161.745" width="1.78378" height="1.78723" fill="white"/>
<rect x="156.973" y="161.745" width="1.78378" height="1.78723" fill="white"/>
<rect x="159.648" y="161.745" width="1.78378" height="1.78723" fill="white"/>
<rect x="162.324" y="161.745" width="1.78378" height="1.78723" fill="white"/>
<rect x="165" y="161.745" width="1.78378" height="1.78723" fill="white"/>
<rect x="128.433" y="180.511" width="1.78378" height="1.78723" fill="white"/>
<rect x="131.108" y="180.511" width="1.78378" height="1.78723" fill="white"/>
<rect x="133.784" y="180.511" width="1.78378" height="1.78723" fill="white"/>
<rect x="136.459" y="180.511" width="1.78378" height="1.78723" fill="white"/>
<rect x="139.135" y="180.511" width="1.78378" height="1.78723" fill="white"/>
<rect x="141.811" y="180.511" width="1.78378" height="1.78723" fill="white"/>
<rect x="128.433" y="183.191" width="1.78378" height="1.78723" fill="white"/>
<rect x="131.108" y="183.191" width="1.78378" height="1.78723" fill="white"/>
<rect x="133.784" y="183.191" width="1.78378" height="1.78723" fill="white"/>
<rect x="115.946" y="194.809" width="1.78378" height="1.78723" fill="white"/>
<rect x="118.622" y="194.809" width="1.78378" height="1.78723" fill="white"/>
<rect x="121.297" y="194.809" width="1.78378" height="1.78723" fill="white"/>
<rect x="115.946" y="197.489" width="1.78378" height="1.78723" fill="white"/>
<rect x="118.622" y="197.489" width="1.78378" height="1.78723" fill="white"/>
<rect x="121.297" y="197.489" width="1.78378" height="1.78723" fill="white"/>
<rect x="136.459" y="183.191" width="1.78378" height="1.78723" fill="white"/>
<rect x="139.135" y="183.191" width="1.78378" height="1.78723" fill="white"/>
<rect x="141.811" y="183.191" width="1.78378" height="1.78723" fill="white"/>
<rect x="148.946" y="164.426" width="1.78378" height="1.78723" fill="white"/>
<rect x="151.622" y="164.426" width="1.78378" height="1.78723" fill="white"/>
<rect x="154.297" y="164.426" width="1.78378" height="1.78723" fill="white"/>
<rect x="156.973" y="164.426" width="1.78378" height="1.78723" fill="white"/>
<rect x="159.648" y="164.426" width="1.78378" height="1.78723" fill="white"/>
<rect x="162.324" y="164.426" width="1.78378" height="1.78723" fill="white"/>
<rect x="165" y="164.426" width="1.78378" height="1.78723" fill="white"/>
<rect x="159.648" y="167.106" width="1.78378" height="1.78723" fill="white"/>
<rect x="162.324" y="167.106" width="1.78378" height="1.78723" fill="white"/>
<rect x="165" y="167.106" width="1.78378" height="1.78723" fill="white"/>
<rect x="159.648" y="169.787" width="1.78378" height="1.78723" fill="white"/>
<rect x="162.324" y="169.787" width="1.78378" height="1.78723" fill="white"/>
<rect x="165" y="169.787" width="1.78378" height="1.78723" fill="white"/>
<rect x="159.648" y="172.468" width="1.78378" height="1.78723" fill="white"/>
<rect x="162.324" y="172.468" width="1.78378" height="1.78723" fill="white"/>
<rect x="165" y="172.468" width="1.78378" height="1.78723" fill="white"/>
<rect x="162.324" y="175.149" width="1.78378" height="1.78723" fill="white"/>
<rect x="165" y="175.149" width="1.78378" height="1.78723" fill="white"/>
<rect x="162.324" y="177.83" width="1.78378" height="1.78723" fill="white"/>
<rect x="165" y="177.83" width="1.78378" height="1.78723" fill="white"/>
<rect x="162.324" y="180.511" width="1.78378" height="1.78723" fill="white"/>
<rect x="165" y="180.511" width="1.78378" height="1.78723" fill="white"/>
<path d="M98.238 203.643L88.0677 209.545L84.6903 203.325L85.7828 202.691L88.4781 207.655L91.9146 205.661L89.4723 201.163L90.5648 200.529L93.0071 205.027L97.5559 202.387L98.238 203.643Z" fill="black"/>
<path d="M92.8099 191.996C93.0996 192.744 93.1794 193.473 93.0493 194.182C92.9179 194.887 92.5999 195.528 92.0953 196.104C91.5894 196.677 90.9172 197.136 90.0788 197.484C89.2333 197.834 88.4346 197.983 87.6828 197.931C86.9296 197.875 86.27 197.639 85.7039 197.223C85.1364 196.802 84.7078 196.218 84.4181 195.47C84.1284 194.722 84.0493 193.995 84.1807 193.29C84.3108 192.581 84.6306 191.939 85.14 191.365C85.6481 190.788 86.3248 190.324 87.1704 189.974C88.0088 189.627 88.8029 189.482 89.5526 189.539C90.3008 189.592 90.9587 189.829 91.5262 190.249C92.0922 190.666 92.5201 191.248 92.8099 191.996ZM91.6896 192.46C91.4695 191.892 91.1457 191.483 90.7183 191.235C90.2908 190.986 89.8105 190.87 89.2772 190.886C88.7439 190.902 88.206 191.023 87.6634 191.247C87.1209 191.472 86.6495 191.769 86.2492 192.139C85.8489 192.509 85.5753 192.938 85.4285 193.424C85.2817 193.911 85.3183 194.438 85.5384 195.006C85.7585 195.575 86.084 195.982 86.515 196.23C86.946 196.477 87.4298 196.592 87.9667 196.574C88.5035 196.556 89.0431 196.435 89.5857 196.21C90.1282 195.986 90.5979 195.689 90.9947 195.32C91.3914 194.952 91.6615 194.525 91.8048 194.04C91.948 193.555 91.9096 193.028 91.6896 192.46Z" fill="black"/>
<path d="M85.588 181.109L80.5764 182.395L80.2565 181.063L88.7343 178.887L89.0542 180.219L87.6192 180.587L87.6409 180.678C88.1202 180.771 88.5622 180.993 88.967 181.344C89.3681 181.697 89.6472 182.2 89.8045 182.855C89.9347 183.397 89.9344 183.909 89.8039 184.39C89.6696 184.872 89.3959 185.294 88.9827 185.655C88.5659 186.018 87.9969 186.292 87.2757 186.477L81.8888 187.86L81.5688 186.528L86.8674 185.167C87.4856 185.009 87.9362 184.705 88.2192 184.257C88.5013 183.805 88.5759 183.303 88.4431 182.749C88.3635 182.418 88.1998 182.103 87.952 181.803C87.7033 181.499 87.3798 181.274 86.9816 181.129C86.5824 180.979 86.1179 180.973 85.588 181.109Z" fill="black"/>
<path d="M82.7831 174.912L88.0005 174.329L88.1433 175.696L79.4702 176.665L79.3322 175.344L80.6874 175.193L80.6753 175.077C80.2131 174.918 79.8262 174.641 79.5145 174.246C79.1991 173.852 79.0063 173.319 78.9361 172.647C78.8732 172.045 78.9386 171.504 79.1323 171.026C79.3222 170.548 79.6469 170.156 80.1063 169.851C80.5619 169.546 81.1586 169.352 81.8964 169.27L87.4074 168.654L87.5503 170.021L82.1296 170.627C81.4482 170.703 80.9364 170.943 80.5941 171.349C80.2481 171.754 80.1082 172.274 80.1743 172.907C80.2199 173.343 80.3529 173.723 80.5732 174.046C80.7932 174.365 81.0904 174.603 81.4648 174.76C81.8392 174.918 82.2787 174.968 82.7831 174.912Z" fill="black"/>
<path d="M87.5131 162.117C87.4917 162.864 87.2894 163.517 86.9065 164.077C86.5197 164.637 85.9855 165.068 85.3036 165.37C84.618 165.672 83.8142 165.809 82.8923 165.781C81.978 165.752 81.1892 165.567 80.5259 165.223C79.8626 164.88 79.356 164.415 79.0061 163.828C78.6562 163.242 78.4921 162.571 78.5138 161.817C78.5306 161.234 78.6383 160.776 78.837 160.444C79.0319 160.108 79.251 159.854 79.4942 159.682C79.7337 159.507 79.9305 159.371 80.0846 159.274L80.0879 159.158L75.8033 159.026L75.8429 157.65L87.45 158.007L87.4117 159.336L86.0742 159.295L86.0695 159.458C86.2252 159.564 86.4214 159.714 86.6578 159.908C86.8905 160.102 87.0963 160.375 87.2752 160.727C87.4504 161.079 87.5297 161.542 87.5131 162.117ZM86.317 161.894C86.3329 161.342 86.2065 160.871 85.9379 160.482C85.6655 160.092 85.2828 159.79 84.7897 159.577C84.2929 159.363 83.7158 159.246 83.0584 159.226C82.4085 159.206 81.8371 159.285 81.344 159.465C80.8473 159.644 80.4574 159.92 80.1744 160.292C79.8876 160.665 79.7361 161.131 79.72 161.691C79.7032 162.274 79.8347 162.764 80.1144 163.162C80.3905 163.556 80.7732 163.857 81.2626 164.067C81.7483 164.273 82.2972 164.385 82.9093 164.404C83.5289 164.423 84.0947 164.343 84.6066 164.164C85.1148 163.981 85.5237 163.702 85.8333 163.326C86.1392 162.947 86.3004 162.469 86.317 161.894Z" fill="black"/>
<path d="M88.3462 152.316C88.2567 152.877 88.0732 153.369 87.7955 153.791C87.5141 154.213 87.1564 154.525 86.7226 154.728C86.2851 154.93 85.7871 154.983 85.2286 154.888C84.7371 154.804 84.3547 154.636 84.0813 154.384C83.8041 154.132 83.6047 153.823 83.483 153.459C83.3614 153.095 83.2899 152.704 83.2686 152.285C83.2442 151.863 83.2387 151.441 83.2522 151.021C83.2709 150.472 83.2902 150.027 83.31 149.687C83.3267 149.342 83.3045 149.085 83.2434 148.917C83.1829 148.745 83.0465 148.641 82.8343 148.604L82.7896 148.597C82.2386 148.503 81.7857 148.586 81.4307 148.845C81.0764 149.101 80.8493 149.542 80.7494 150.168C80.6458 150.818 80.7024 151.351 80.9191 151.767C81.1358 152.183 81.3885 152.492 81.6774 152.695L81.0247 153.911C80.5402 153.592 80.1834 153.215 79.9543 152.781C79.7221 152.343 79.5847 151.885 79.5422 151.408C79.4966 150.926 79.5094 150.462 79.5805 150.016C79.6258 149.732 79.7114 149.411 79.8372 149.053C79.96 148.691 80.1494 148.354 80.4056 148.043C80.6625 147.727 81.0122 147.489 81.4547 147.327C81.8973 147.166 82.4593 147.143 83.1406 147.259L88.7923 148.222L88.5754 149.583L87.4137 149.385L87.4027 149.454C87.5742 149.578 87.7488 149.766 87.9267 150.017C88.1046 150.268 88.2396 150.586 88.3315 150.969C88.4234 151.351 88.4283 151.8 88.3462 152.316ZM87.1954 151.906C87.2811 151.368 87.2511 150.897 87.1051 150.493C86.9598 150.085 86.7402 149.76 86.4463 149.516C86.153 149.269 85.8277 149.115 85.4703 149.054L84.264 148.848C84.3218 148.917 84.363 149.054 84.3876 149.26C84.4091 149.461 84.4201 149.692 84.4206 149.953C84.418 150.209 84.4126 150.459 84.4044 150.702C84.3931 150.941 84.3851 151.135 84.3804 151.284C84.3687 151.646 84.3886 151.989 84.4401 152.313C84.4885 152.634 84.5963 152.905 84.7636 153.127C84.9278 153.344 85.1775 153.481 85.5125 153.538C85.9705 153.616 86.3446 153.501 86.6349 153.191C86.9221 152.876 87.109 152.448 87.1954 151.906Z" fill="black"/>
<path d="M82.0648 139.278L83.156 139.583L81.9794 144.08L80.8882 143.775L82.0648 139.278ZM79.2233 141.903L79.5721 140.569L87.5599 142.803C87.9236 142.905 88.2107 142.927 88.4212 142.868C88.629 142.805 88.7864 142.696 88.8936 142.54C88.9981 142.379 89.076 142.201 89.1272 142.005C89.1657 141.858 89.1899 141.736 89.2 141.637C89.2065 141.538 89.2116 141.459 89.2155 141.399L90.4431 141.451C90.4522 141.551 90.4519 141.686 90.4423 141.857C90.4363 142.03 90.4008 142.24 90.3358 142.488C90.2372 142.865 90.0624 143.212 89.8114 143.53C89.5614 143.844 89.2453 144.075 88.8631 144.223C88.482 144.367 88.0477 144.37 87.5602 144.234L79.2233 141.903Z" fill="black"/>
<path d="M90.9788 139.96L82.7696 137.063L83.2015 135.755L91.4108 138.652L90.9788 139.96ZM81.621 135.915C81.5369 136.17 81.3805 136.36 81.1521 136.486C80.9248 136.608 80.6936 136.627 80.4584 136.544C80.2233 136.461 80.0519 136.3 79.9442 136.06C79.8377 135.816 79.8266 135.566 79.9108 135.311C79.995 135.056 80.1507 134.868 80.3779 134.746C80.6064 134.62 80.8382 134.599 81.0734 134.682C81.3085 134.765 81.4793 134.928 81.5858 135.172C81.6935 135.412 81.7052 135.66 81.621 135.915Z" fill="black"/>
<path d="M93.9275 132.605C93.6033 133.345 93.1492 133.916 92.5653 134.317C91.983 134.714 91.3183 134.926 90.5713 134.955C89.8259 134.979 89.0455 134.801 88.2301 134.42C87.4079 134.035 86.7579 133.544 86.2803 132.948C85.8042 132.347 85.5182 131.69 85.4222 130.976C85.3277 130.258 85.4426 129.528 85.7668 128.788C86.0911 128.047 86.5443 127.478 87.1267 127.081C87.7106 126.68 88.3769 126.468 89.1258 126.445C89.8762 126.419 90.6625 126.598 91.4848 126.982C92.3002 127.363 92.9442 127.854 93.4168 128.452C93.891 129.047 94.1754 129.704 94.2698 130.422C94.3658 131.136 94.2517 131.864 93.9275 132.605ZM92.838 132.095C93.0843 131.532 93.1482 131.004 93.0297 130.511C92.9112 130.018 92.664 129.578 92.2881 129.192C91.9123 128.806 91.4606 128.49 90.933 128.243C90.4054 127.996 89.8756 127.854 89.3435 127.815C88.8115 127.776 88.3255 127.873 87.8856 128.105C87.4457 128.337 87.1026 128.734 86.8563 129.297C86.61 129.86 86.5478 130.389 86.6698 130.883C86.7917 131.378 87.0423 131.819 87.4216 132.207C87.8009 132.595 88.2543 132.912 88.7819 133.159C89.3095 133.405 89.8376 133.547 90.3662 133.584C90.8948 133.621 91.3774 133.523 91.8138 133.289C92.2503 133.056 92.5917 132.658 92.838 132.095Z" fill="black"/>
<path d="M92.9213 122.415L97.327 125.278L96.6135 126.452L89.2897 121.693L89.979 120.559L91.1233 121.302L91.1838 121.203C90.9207 120.782 90.7872 120.316 90.7832 119.805C90.776 119.292 90.9478 118.746 91.2985 118.17C91.6129 117.652 91.9897 117.266 92.429 117.01C92.8651 116.752 93.3536 116.649 93.8947 116.7C94.4326 116.749 95.013 116.976 95.6361 117.381L100.29 120.404L99.5763 121.578L94.9989 118.604C94.4235 118.23 93.8806 118.094 93.3701 118.197C92.8564 118.298 92.4343 118.621 92.1038 119.165C91.876 119.539 91.7503 119.925 91.7267 120.321C91.7051 120.714 91.7923 121.092 91.9883 121.455C92.1843 121.818 92.4953 122.138 92.9213 122.415Z" fill="black"/>
<path d="M107.43 111.704C106.925 112.248 106.349 112.598 105.701 112.754C105.05 112.907 104.374 112.863 103.675 112.621C102.973 112.376 102.291 111.926 101.631 111.272C100.976 110.623 100.517 109.942 100.253 109.23C99.9898 108.517 99.921 107.822 100.047 107.142C100.173 106.463 100.491 105.849 101 105.3C101.394 104.875 101.773 104.606 102.137 104.494C102.5 104.376 102.828 104.337 103.119 104.376C103.41 104.409 103.644 104.442 103.821 104.476L103.899 104.391L100.831 101.35L101.761 100.348L110.072 108.585L109.174 109.554L108.217 108.605L108.106 108.723C108.152 108.91 108.198 109.157 108.245 109.464C108.289 109.769 108.262 110.114 108.164 110.501C108.063 110.884 107.818 111.285 107.43 111.704ZM106.695 110.716C107.068 110.313 107.283 109.874 107.34 109.399C107.394 108.92 107.31 108.431 107.087 107.933C106.861 107.432 106.512 106.948 106.042 106.482C105.576 106.02 105.103 105.688 104.623 105.483C104.14 105.276 103.673 105.215 103.22 105.299C102.766 105.381 102.349 105.626 101.971 106.033C101.577 106.458 101.353 106.915 101.299 107.405C101.245 107.889 101.329 108.378 101.552 108.871C101.775 109.358 102.106 109.819 102.544 110.253C102.988 110.693 103.457 111.022 103.951 111.239C104.444 111.452 104.928 111.524 105.402 111.455C105.875 111.381 106.307 111.135 106.695 110.716Z" fill="black"/>
<path d="M115.233 104.328C114.572 104.87 113.888 105.188 113.181 105.283C112.475 105.372 111.786 105.255 111.116 104.93C110.446 104.599 109.836 104.076 109.287 103.359C108.738 102.643 108.382 101.907 108.219 101.151C108.057 100.389 108.089 99.6666 108.315 98.9821C108.542 98.2923 108.964 97.6938 109.583 97.1867C109.94 96.8942 110.339 96.666 110.781 96.5021C111.222 96.3383 111.69 96.2759 112.185 96.3151C112.678 96.3511 113.18 96.5228 113.691 96.83C114.203 97.1372 114.709 97.617 115.209 98.2696L115.558 98.7248L110.274 103.054L109.562 102.126L113.775 98.6737C113.473 98.2792 113.125 97.9905 112.733 97.8077C112.344 97.6225 111.94 97.5561 111.52 97.6086C111.103 97.6587 110.704 97.8398 110.323 98.1518C109.904 98.4956 109.622 98.8992 109.479 99.3628C109.336 99.8209 109.312 100.285 109.406 100.756C109.501 101.227 109.696 101.656 109.991 102.041L110.466 102.66C110.871 103.188 111.303 103.563 111.763 103.784C112.224 103.999 112.688 104.071 113.156 103.999C113.622 103.924 114.067 103.712 114.493 103.363C114.769 103.137 114.989 102.892 115.152 102.631C115.315 102.363 115.417 102.082 115.457 101.787C115.495 101.489 115.466 101.182 115.369 100.866L116.61 100.324C116.773 100.764 116.83 101.221 116.782 101.695C116.731 102.166 116.577 102.629 116.319 103.082C116.059 103.533 115.697 103.948 115.233 104.328Z" fill="black"/>
<path d="M121.968 91.122L121.108 92.0658C120.941 91.9307 120.745 91.8199 120.522 91.7334C120.299 91.6415 120.049 91.6078 119.771 91.6324C119.492 91.657 119.186 91.7739 118.851 91.9829C118.393 92.2691 118.074 92.6154 117.894 93.0216C117.716 93.4225 117.723 93.787 117.914 94.1151C118.085 94.4068 118.323 94.5722 118.63 94.6113C118.937 94.6504 119.344 94.5883 119.852 94.4249L121.126 94.0091C121.892 93.7567 122.539 93.6987 123.067 93.835C123.593 93.9681 124.012 94.3014 124.324 94.835C124.579 95.2725 124.684 95.7407 124.639 96.2397C124.596 96.7366 124.414 97.2215 124.092 97.6944C123.769 98.1673 123.317 98.5854 122.735 98.9488C121.972 99.4258 121.241 99.6515 120.543 99.6261C119.845 99.6006 119.239 99.3047 118.726 98.7383L119.656 97.7778C120 98.1239 120.377 98.3093 120.786 98.3341C121.198 98.3569 121.64 98.2212 122.111 97.9269C122.648 97.5919 123.006 97.21 123.185 96.7811C123.366 96.3469 123.361 95.9657 123.169 95.6376C123.014 95.3724 122.793 95.2072 122.507 95.1419C122.218 95.0733 121.859 95.112 121.43 95.2579L120.008 95.7391C119.225 96.0017 118.572 96.0594 118.046 95.9124C117.523 95.76 117.107 95.4203 116.799 94.8933C116.547 94.4625 116.443 94.0072 116.487 93.5276C116.533 93.046 116.708 92.5818 117.01 92.1351C117.316 91.6864 117.732 91.2976 118.258 90.9687C118.999 90.5059 119.678 90.3083 120.294 90.3759C120.913 90.4414 121.471 90.6901 121.968 91.122Z" fill="black"/>
<path d="M127.782 95.848L123.984 87.8354L125.191 87.2239L128.989 95.2365L127.782 95.848ZM123.964 86.189C123.729 86.3082 123.488 86.3293 123.24 86.2522C122.995 86.1734 122.818 86.0192 122.71 85.7897C122.601 85.5601 122.591 85.3213 122.681 85.0732C122.774 84.8234 122.938 84.6389 123.173 84.5197C123.408 84.4006 123.648 84.3804 123.893 84.4592C124.14 84.5363 124.319 84.6896 124.428 84.9191C124.536 85.1487 124.544 85.3883 124.451 85.6381C124.362 85.8862 124.2 86.0699 123.964 86.189Z" fill="black"/>
<path d="M135.994 95.9859C135.386 96.2212 134.835 96.3437 134.34 96.3533C133.846 96.3665 133.407 96.3008 133.023 96.156C132.643 96.0135 132.315 95.8301 132.039 95.6059L132.781 94.4994C132.95 94.6077 133.157 94.7262 133.402 94.8547C133.648 94.9868 133.949 95.067 134.303 95.0951C134.663 95.1256 135.09 95.0452 135.584 94.8539C136.245 94.5979 136.731 94.2234 137.042 93.7304C137.354 93.2373 137.384 92.6425 137.131 91.9458L136.516 90.2477L136.409 90.289C136.372 90.4772 136.309 90.7167 136.22 91.0078C136.133 91.2938 135.963 91.5851 135.71 91.8817C135.459 92.1733 135.067 92.4224 134.534 92.6288C133.873 92.8847 133.222 92.9549 132.581 92.8392C131.943 92.7222 131.36 92.4181 130.834 91.9268C130.311 91.4342 129.892 90.7525 129.576 89.8817C129.266 89.0254 129.143 88.2226 129.208 87.4735C129.272 86.7207 129.503 86.0683 129.903 85.5163C130.301 84.9607 130.845 84.5494 131.535 84.2824C132.068 84.076 132.523 84.003 132.902 84.0633C133.282 84.1186 133.598 84.2282 133.847 84.3922C134.1 84.5511 134.298 84.6852 134.443 84.7946L134.571 84.745L134.09 83.417L135.305 82.9464L138.421 91.5458C138.681 92.2642 138.733 92.9103 138.576 93.4841C138.424 94.0601 138.118 94.5572 137.658 94.9754C137.202 95.3959 136.648 95.7328 135.994 95.9859ZM134.287 91.4089C134.791 91.2135 135.175 90.9304 135.438 90.5597C135.701 90.189 135.842 89.7473 135.863 89.2344C135.884 88.7216 135.783 88.1567 135.559 87.5399C135.341 86.9376 135.06 86.4404 134.715 86.0484C134.37 85.6564 133.977 85.3972 133.534 85.2708C133.091 85.1444 132.614 85.1803 132.102 85.3785C131.569 85.5849 131.175 85.8948 130.919 86.3081C130.667 86.7201 130.537 87.1927 130.527 87.726C130.522 88.2578 130.621 88.8068 130.826 89.3728C131.037 89.9534 131.311 90.4324 131.651 90.8099C131.992 91.1824 132.385 91.4275 132.829 91.5452C133.275 91.658 133.761 91.6125 134.287 91.4089Z" fill="black"/>
<path d="M141.408 84.8828L142.54 90.1294L141.23 90.4315L139.348 81.7098L140.614 81.418L140.908 82.7807L141.019 82.7551C141.123 82.2661 141.349 81.8403 141.698 81.4777C142.046 81.1113 142.542 80.8538 143.186 80.7054C143.763 80.5722 144.294 80.5769 144.78 80.7193C145.264 80.858 145.679 81.1437 146.025 81.5766C146.37 82.0057 146.622 82.5912 146.782 83.3331L147.978 88.875L146.669 89.1771L145.492 83.726C145.345 83.0409 145.056 82.5472 144.625 82.2451C144.194 81.9392 143.675 81.8562 143.069 81.9962C142.651 82.0926 142.297 82.2715 142.008 82.533C141.722 82.7935 141.523 83.1235 141.411 83.5229C141.3 83.9222 141.298 84.3755 141.408 84.8828Z" fill="black"/>
<path d="M159.196 88.0467C158.379 88.0651 157.672 87.8827 157.073 87.4997C156.475 87.1166 156.01 86.5809 155.677 85.8925C155.345 85.2041 155.17 84.413 155.151 83.5193C155.132 82.6101 155.277 81.804 155.588 81.1011C155.902 80.3943 156.348 79.8381 156.926 79.4324C157.508 79.0228 158.192 78.8091 158.978 78.7914C159.591 78.7776 160.145 78.8817 160.642 79.1038C161.138 79.3259 161.548 79.6432 161.871 80.0558C162.194 80.4684 162.399 80.9536 162.486 81.5114L161.147 81.5416C161.037 81.1359 160.802 80.7796 160.444 80.4728C160.089 80.162 159.617 80.0133 159.027 80.0265C158.505 80.0383 158.051 80.1885 157.663 80.4771C157.279 80.7618 156.983 81.1591 156.775 81.6692C156.57 82.1753 156.474 82.7664 156.488 83.4426C156.503 84.1342 156.622 84.7341 156.844 85.2423C157.071 85.7503 157.381 86.1418 157.777 86.4167C158.176 86.6915 158.641 86.8229 159.17 86.811C159.518 86.8032 159.832 86.7339 160.113 86.6032C160.394 86.4724 160.631 86.2883 160.822 86.0507C161.014 85.8131 161.148 85.5302 161.224 85.2019L162.563 85.1718C162.499 85.702 162.321 86.1822 162.032 86.6124C161.746 87.0387 161.361 87.3817 160.879 87.6414C160.4 87.8971 159.839 88.0322 159.196 88.0467Z" fill="black"/>
<path d="M168.741 88.5176C167.96 88.4272 167.296 88.1564 166.749 87.7051C166.205 87.2542 165.805 86.6653 165.55 85.9384C165.298 85.2119 165.222 84.3882 165.321 83.4674C165.422 82.5388 165.673 81.7471 166.075 81.0924C166.48 80.4381 166.996 79.9533 167.623 79.6381C168.254 79.3233 168.959 79.2111 169.74 79.3015C170.52 79.3919 171.182 79.6625 171.726 80.1134C172.274 80.5646 172.673 81.1555 172.925 81.8858C173.18 82.6167 173.257 83.4463 173.157 84.3749C173.057 85.2958 172.805 86.0814 172.4 86.7319C171.999 87.3827 171.483 87.8656 170.852 88.1804C170.225 88.4956 169.521 88.608 168.741 88.5176ZM168.874 87.2872C169.467 87.3559 169.972 87.2557 170.389 86.9867C170.805 86.7176 171.133 86.3384 171.373 85.8489C171.612 85.3595 171.764 84.8169 171.828 84.2211C171.893 83.6252 171.861 83.0594 171.733 82.5235C171.605 81.9876 171.367 81.5389 171.018 81.1773C170.67 80.8157 170.199 80.6005 169.606 80.5318C169.013 80.4632 168.508 80.5653 168.091 80.8382C167.674 81.1112 167.346 81.4943 167.106 81.9876C166.867 82.4808 166.714 83.0254 166.65 83.6212C166.585 84.2171 166.617 84.781 166.746 85.313C166.874 85.845 167.113 86.2899 167.462 86.6476C167.811 87.0054 168.281 87.2186 168.874 87.2872Z" fill="black"/>
<path d="M177.782 84.4004L176.505 89.6427L175.211 89.3058L177.334 80.5914L178.584 80.9168L178.252 82.2784L178.362 82.307C178.667 81.9158 179.053 81.6383 179.521 81.4744C179.989 81.3068 180.541 81.3057 181.177 81.4713C181.748 81.6197 182.217 81.8707 182.586 82.2241C182.955 82.5737 183.199 83.0234 183.318 83.5731C183.438 84.1191 183.407 84.7628 183.227 85.5041L181.878 91.0414L180.584 90.7046L181.911 85.2581C182.077 84.5735 182.036 83.9954 181.785 83.524C181.535 83.0487 181.111 82.7331 180.512 82.577C180.099 82.4695 179.707 82.4661 179.336 82.5667C178.97 82.6683 178.65 82.8726 178.377 83.1796C178.104 83.4866 177.906 83.8935 177.782 84.4004Z" fill="black"/>
<path d="M192.931 87.8506L191.693 87.7261C191.696 87.5049 191.664 87.2757 191.596 87.0384C191.533 86.7989 191.409 86.5723 191.224 86.3584C191.038 86.1446 190.765 85.9646 190.404 85.8182C189.91 85.6179 189.454 85.5691 189.035 85.6719C188.621 85.7726 188.345 86.0029 188.208 86.363C188.087 86.6831 188.103 86.9813 188.257 87.2577C188.411 87.5342 188.702 87.8308 189.132 88.1477L190.214 88.9392C190.866 89.4138 191.298 89.9101 191.51 90.4282C191.723 90.9427 191.718 91.4928 191.496 92.0783C191.314 92.5584 191.018 92.9336 190.608 93.2039C190.202 93.4756 189.721 93.6246 189.165 93.651C188.609 93.6774 188.018 93.5634 187.391 93.3091C186.568 92.9752 185.957 92.5133 185.558 91.9235C185.16 91.3337 185.024 90.6532 185.151 89.8821L186.444 90.054C186.385 90.5505 186.468 90.9747 186.694 91.3267C186.924 91.6801 187.293 91.9598 187.801 92.1658C188.379 92.4002 188.886 92.4591 189.322 92.3423C189.764 92.2233 190.052 91.9838 190.189 91.6237C190.3 91.3328 190.294 91.0493 190.172 90.7733C190.052 90.4937 189.808 90.2224 189.438 89.9594L188.218 89.0864C187.548 88.6047 187.112 88.1026 186.91 87.5801C186.713 87.0553 186.724 86.5037 186.944 85.9255C187.123 85.4526 187.41 85.0862 187.803 84.8263C188.201 84.5677 188.661 84.425 189.185 84.3981C189.712 84.3727 190.259 84.4751 190.826 84.7053C191.625 85.0292 192.183 85.4654 192.5 86.0139C192.821 86.5637 192.965 87.1759 192.931 87.8506Z" fill="black"/>
<path d="M200.15 89.3052L199.635 90.3508L195.637 88.244L196.152 87.1984L200.15 89.3052ZM198.266 85.8887L199.451 86.5133L195.678 94.1667C195.506 94.5152 195.426 94.8022 195.437 95.0276C195.453 95.2513 195.524 95.4334 195.649 95.5738C195.778 95.7125 195.93 95.8277 196.104 95.9194C196.235 95.9883 196.346 96.0377 196.436 96.0679C196.529 96.0946 196.602 96.116 196.658 96.132L196.352 97.3673C196.257 97.3563 196.129 97.3286 195.969 97.284C195.808 97.243 195.617 97.1643 195.396 97.0478C195.061 96.8714 194.77 96.6235 194.523 96.3043C194.279 95.9868 194.127 95.6191 194.067 95.2013C194.01 94.7852 194.097 94.3436 194.328 93.8766L198.266 85.8887Z" fill="black"/>
<path d="M197.699 98.2491L202.276 90.5688L203.369 91.2652L202.678 92.4252L202.755 92.4741C203.116 92.1796 203.542 92.026 204.035 92.0133C204.528 92.0006 204.995 92.1348 205.436 92.4158C205.519 92.4687 205.622 92.5366 205.744 92.6193C205.867 92.7021 205.958 92.7671 206.018 92.8145L205.303 94.0146C205.271 93.9801 205.192 93.9091 205.066 93.8016C204.946 93.6927 204.811 93.5904 204.66 93.4947C204.302 93.2667 203.936 93.1414 203.561 93.1189C203.192 93.0951 202.844 93.1679 202.518 93.3374C202.197 93.5056 201.934 93.763 201.727 94.1097L198.831 98.9699L197.699 98.2491Z" fill="black"/>
<path d="M209.573 102.318L212.753 98.1113L213.799 98.9566L208.42 106.072L207.374 105.227L208.285 104.023L208.214 103.965C207.781 104.198 207.3 104.305 206.772 104.286C206.246 104.264 205.726 104.045 205.212 103.629C204.786 103.286 204.481 102.883 204.297 102.421C204.116 101.956 204.08 101.449 204.189 100.901C204.301 100.35 204.586 99.7713 205.044 99.166L208.461 94.6445L209.507 95.4897L206.146 99.9371C205.754 100.456 205.58 100.982 205.624 101.515C205.672 102.051 205.912 102.494 206.347 102.845C206.607 103.055 206.924 103.2 207.298 103.278C207.675 103.359 208.064 103.329 208.464 103.19C208.867 103.053 209.237 102.763 209.573 102.318Z" fill="black"/>
<path d="M213.11 110.992C212.545 110.394 212.197 109.738 212.066 109.026C211.934 108.314 212.002 107.596 212.268 106.873C212.534 106.15 212.98 105.473 213.605 104.843C214.24 104.201 214.914 103.755 215.625 103.503C216.341 103.251 217.04 103.201 217.72 103.354C218.405 103.508 219.02 103.872 219.564 104.449C219.988 104.898 220.289 105.385 220.466 105.91C220.643 106.435 220.694 106.961 220.618 107.487C220.542 108.013 220.334 108.501 219.996 108.951L219.069 107.969C219.284 107.607 219.379 107.185 219.356 106.706C219.338 106.226 219.124 105.77 218.716 105.337C218.355 104.954 217.941 104.718 217.473 104.627C217.01 104.535 216.527 104.588 216.022 104.783C215.522 104.978 215.036 105.314 214.564 105.791C214.08 106.279 213.733 106.781 213.521 107.298C213.311 107.818 213.242 108.321 213.314 108.806C213.388 109.295 213.608 109.733 213.974 110.121C214.215 110.376 214.477 110.564 214.76 110.684C215.043 110.805 215.334 110.855 215.633 110.834C215.933 110.814 216.225 110.719 216.511 110.55L217.437 111.532C217.015 111.849 216.553 112.047 216.05 112.127C215.553 112.207 215.048 112.155 214.537 111.973C214.031 111.791 213.555 111.464 213.11 110.992Z" fill="black"/>
<path d="M226.395 112.837L225.503 113.57L222.721 109.949L223.613 109.217L226.395 112.837ZM226.065 108.924L226.89 109.998L220.361 115.358C220.064 115.602 219.875 115.829 219.794 116.039C219.718 116.25 219.708 116.446 219.765 116.627C219.827 116.808 219.918 116.978 220.039 117.136C220.13 117.254 220.211 117.346 220.281 117.412C220.354 117.476 220.413 117.527 220.456 117.565L219.679 118.559C219.596 118.509 219.491 118.429 219.364 118.321C219.234 118.215 219.093 118.062 218.939 117.861C218.706 117.558 218.542 117.208 218.446 116.812C218.352 116.419 218.363 116.02 218.478 115.614C218.595 115.211 218.853 114.846 219.251 114.519L226.065 108.924Z" fill="black"/>
<path d="M220.544 119.943L227.733 114.79L228.489 115.917L221.3 121.07L220.544 119.943ZM229.315 114.504C229.168 114.285 229.115 114.043 229.155 113.779C229.197 113.518 229.321 113.313 229.527 113.166C229.732 113.018 229.961 112.97 230.212 113.02C230.466 113.074 230.666 113.211 230.813 113.431C230.96 113.65 231.013 113.891 230.971 114.152C230.931 114.416 230.808 114.622 230.602 114.769C230.396 114.917 230.167 114.964 229.913 114.91C229.662 114.859 229.463 114.724 229.315 114.504Z" fill="black"/>
<path d="M224.535 126.821C224.154 126.118 223.984 125.406 224.025 124.686C224.068 123.969 224.304 123.291 224.732 122.652C225.163 122.017 225.773 121.472 226.561 121.015C227.356 120.555 228.13 120.301 228.882 120.252C229.636 120.206 230.32 120.352 230.933 120.689C231.548 121.03 232.046 121.552 232.427 122.255C232.807 122.958 232.976 123.668 232.933 124.385C232.892 125.105 232.655 125.784 232.221 126.421C231.789 127.061 231.175 127.612 230.38 128.072C229.592 128.528 228.822 128.778 228.071 128.821C227.322 128.869 226.64 128.722 226.025 128.381C225.412 128.044 224.915 127.523 224.535 126.821ZM225.588 126.211C225.877 126.745 226.249 127.107 226.704 127.296C227.159 127.486 227.65 127.537 228.177 127.449C228.704 127.362 229.222 127.17 229.733 126.875C230.243 126.58 230.674 126.222 231.025 125.802C231.376 125.381 231.594 124.92 231.679 124.418C231.764 123.916 231.662 123.398 231.373 122.864C231.084 122.331 230.71 121.97 230.252 121.782C229.794 121.595 229.3 121.546 228.769 121.635C228.239 121.724 227.719 121.917 227.209 122.212C226.698 122.507 226.269 122.864 225.922 123.282C225.574 123.701 225.359 124.16 225.277 124.66C225.196 125.16 225.299 125.677 225.588 126.211Z" fill="black"/>
<path d="M233.085 131.957L228.191 133.949L227.705 132.672L235.84 129.362L236.31 130.595L235.039 131.112L235.08 131.22C235.567 131.247 236.012 131.407 236.413 131.702C236.819 131.995 237.141 132.455 237.379 133.082C237.593 133.645 237.668 134.183 237.602 134.696C237.541 135.209 237.327 135.675 236.96 136.094C236.597 136.513 236.07 136.863 235.378 137.144L230.208 139.248L229.723 137.972L234.807 135.903C235.446 135.643 235.88 135.271 236.107 134.787C236.339 134.301 236.342 133.763 236.116 133.172C235.961 132.764 235.736 132.435 235.441 132.185C235.147 131.938 234.799 131.79 234.397 131.741C233.996 131.693 233.558 131.764 233.085 131.957Z" fill="black"/>
<path d="M243.932 145.726L232.553 148.282L232.271 146.94L243.65 144.384L243.932 145.726Z" fill="black"/>
<path d="M237.361 156.306L242.483 155.677L242.639 157.042L233.976 158.105L233.819 156.741L235.285 156.561L235.275 156.468C234.811 156.314 234.4 156.036 234.041 155.634C233.686 155.232 233.47 154.696 233.393 154.025C233.329 153.47 233.391 152.962 233.578 152.501C233.769 152.04 234.091 151.656 234.544 151.35C235.001 151.044 235.598 150.845 236.335 150.755L241.84 150.079L241.996 151.444L236.582 152.109C235.95 152.186 235.467 152.429 235.132 152.838C234.798 153.25 234.664 153.74 234.729 154.307C234.768 154.646 234.892 154.98 235.102 155.311C235.312 155.644 235.605 155.909 235.982 156.106C236.36 156.305 236.82 156.372 237.361 156.306Z" fill="black"/>
<path d="M233.939 164.972C233.951 164.132 234.154 163.412 234.548 162.811C234.943 162.21 235.48 161.752 236.162 161.436C236.843 161.119 237.618 160.968 238.488 160.981C239.372 160.994 240.151 161.173 240.823 161.518C241.498 161.866 242.023 162.345 242.396 162.953C242.773 163.566 242.956 164.276 242.944 165.085C242.935 165.715 242.814 166.281 242.58 166.783C242.346 167.285 242.023 167.694 241.61 168.01C241.197 168.327 240.718 168.52 240.172 168.589L240.192 167.213C240.59 167.114 240.945 166.886 241.256 166.529C241.571 166.176 241.733 165.697 241.742 165.09C241.749 164.553 241.62 164.081 241.354 163.672C241.091 163.268 240.715 162.949 240.227 162.716C239.743 162.487 239.171 162.368 238.514 162.358C237.841 162.348 237.253 162.448 236.751 162.658C236.249 162.872 235.857 163.177 235.575 163.573C235.294 163.974 235.149 164.446 235.141 164.99C235.136 165.348 235.192 165.673 235.309 165.967C235.426 166.26 235.596 166.51 235.82 166.715C236.044 166.921 236.314 167.069 236.631 167.159L236.611 168.536C236.098 168.45 235.638 168.251 235.23 167.937C234.826 167.628 234.507 167.22 234.272 166.715C234.041 166.214 233.93 165.633 233.939 164.972Z" fill="black"/>
<path d="M236.829 172.98L238.468 173.199L238.43 173.477L241.725 177.931L241.491 179.619L238.007 174.878L238.023 174.762L236.829 172.98ZM233.866 171.243L245.344 172.942L245.155 174.307L233.677 172.608L233.866 171.243ZM233.085 176.888L237.825 174.048L238.609 175.156L232.844 178.623L233.085 176.888Z" fill="black"/>
<path d="M237.1 183.44L232.069 181.992L232.428 180.661L240.79 183.068L240.444 184.354L239.138 183.978L239.107 184.09C239.477 184.416 239.735 184.822 239.882 185.31C240.032 185.798 240.019 186.37 239.843 187.024C239.685 187.61 239.43 188.09 239.08 188.463C238.732 188.837 238.292 189.078 237.758 189.188C237.227 189.298 236.606 189.251 235.895 189.047L230.581 187.517L230.94 186.186L236.166 187.691C236.823 187.88 237.383 187.851 237.844 187.603C238.31 187.356 238.626 186.924 238.792 186.308C238.906 185.883 238.919 185.478 238.831 185.092C238.743 184.71 238.554 184.374 238.264 184.085C237.974 183.795 237.586 183.58 237.1 183.44Z" fill="black"/>
<path d="M228.043 193.789C228.353 193.042 228.796 192.462 229.372 192.05C229.947 191.641 230.607 191.415 231.354 191.372C232.099 191.332 232.883 191.495 233.705 191.859C234.535 192.227 235.194 192.704 235.683 193.291C236.171 193.882 236.47 194.533 236.58 195.245C236.688 195.961 236.587 196.692 236.277 197.439C235.968 198.187 235.525 198.764 234.951 199.173C234.375 199.585 233.712 199.811 232.964 199.849C232.214 199.891 231.424 199.728 230.595 199.36C229.772 198.996 229.118 198.519 228.634 197.93C228.148 197.345 227.851 196.694 227.743 195.978C227.633 195.266 227.733 194.537 228.043 193.789ZM229.142 194.277C228.907 194.844 228.853 195.373 228.981 195.864C229.11 196.354 229.365 196.789 229.749 197.167C230.132 197.545 230.59 197.853 231.122 198.089C231.654 198.324 232.187 198.456 232.72 198.484C233.252 198.512 233.737 198.405 234.172 198.165C234.607 197.924 234.943 197.52 235.178 196.952C235.414 196.384 235.465 195.855 235.334 195.363C235.202 194.87 234.943 194.435 234.557 194.055C234.17 193.675 233.71 193.367 233.178 193.131C232.646 192.895 232.115 192.764 231.585 192.738C231.056 192.712 230.575 192.82 230.143 193.062C229.712 193.304 229.378 193.709 229.142 194.277Z" fill="black"/>
<path d="M224.616 201.566L233.345 204.033L232.591 205.263L225.988 203.244L225.939 203.323L230.534 208.617L229.767 209.867L223.208 207.82L223.159 207.899L227.723 213.2L226.968 214.43L221.087 207.32L221.793 206.169L228.427 208.181L228.5 208.062L223.91 202.717L224.616 201.566Z" fill="black"/>
<defs>
<linearGradient id="paint0_linear_0_1" x1="160.54" y1="382.468" x2="160.54" y2="121.532" gradientUnits="userSpaceOnUse">
<stop offset="0.474136" stop-color="#095C41"/>
<stop offset="0.932732" stop-color="#05365A"/>
</linearGradient>
</defs>
</svg>
