<svg width="850" height="576" viewBox="0 0 850 576" fill="none" xmlns="http://www.w3.org/2000/svg">
<g clip-path="url(#clip0_76_548)">
<path d="M652.718 524.412H267.825C265.439 524.409 263.151 523.46 261.464 521.773C259.777 520.086 258.827 517.798 258.825 515.412V252.59C258.827 250.204 259.777 247.916 261.464 246.229C263.151 244.542 265.439 243.593 267.825 243.59H652.718C655.104 243.593 657.392 244.542 659.079 246.229C660.766 247.916 661.716 250.204 661.718 252.59V515.412C661.716 517.798 660.766 520.086 659.079 521.773C657.392 523.46 655.104 524.409 652.718 524.412Z" fill="white"/>
<path d="M652.718 524.412H267.825C265.439 524.409 263.151 523.46 261.464 521.773C259.777 520.086 258.827 517.798 258.825 515.412V252.59C258.827 250.204 259.777 247.916 261.464 246.229C263.151 244.542 265.439 243.593 267.825 243.59H652.718C655.104 243.593 657.392 244.542 659.079 246.229C660.766 247.916 661.716 250.204 661.718 252.59V515.412C661.716 517.798 660.766 520.086 659.079 521.773C657.392 523.46 655.104 524.409 652.718 524.412ZM267.825 245.59C265.969 245.592 264.19 246.33 262.877 247.643C261.565 248.955 260.827 250.734 260.825 252.59V515.412C260.827 517.268 261.565 519.047 262.877 520.359C264.19 521.672 265.969 522.41 267.825 522.412H652.718C654.574 522.41 656.353 521.672 657.666 520.359C658.978 519.047 659.716 517.268 659.718 515.412V252.59C659.716 250.734 658.978 248.955 657.666 247.643C656.353 246.33 654.574 245.592 652.718 245.59H267.825Z" fill="#3F3D56"/>
<path d="M504.826 522.83H415.717V375.311C415.721 371.812 417.113 368.458 419.587 365.984C422.061 363.51 425.415 362.118 428.914 362.114H491.629C495.128 362.118 498.482 363.51 500.956 365.984C503.43 368.458 504.822 371.812 504.826 375.311V522.83Z" fill="#E6E6E6"/>
<path d="M631.727 187.567H580.839V102.523C580.842 100.137 581.791 97.8495 583.478 96.1623C585.165 94.475 587.453 93.5259 589.839 93.5232H622.727C625.113 93.5259 627.401 94.475 629.088 96.1623C630.775 97.8495 631.724 100.137 631.727 102.523V187.567Z" fill="white"/>
<path d="M631.727 187.567H580.839V102.523C580.842 100.137 581.791 97.8495 583.478 96.1623C585.165 94.475 587.453 93.5259 589.839 93.5232H622.727C625.113 93.5259 627.401 94.475 629.088 96.1623C630.775 97.8495 631.724 100.137 631.727 102.523V187.567ZM582.839 185.567H629.727V102.523C629.725 100.667 628.987 98.888 627.674 97.5757C626.362 96.2634 624.583 95.5253 622.727 95.5232H589.839C587.983 95.5253 586.204 96.2634 584.891 97.5757C583.579 98.888 582.841 100.667 582.839 102.523V185.567Z" fill="#3F3D56"/>
<path d="M344.82 223.378C398.939 223.378 442.811 179.506 442.811 125.387C442.811 71.2673 398.939 27.395 344.82 27.395C290.7 27.395 246.828 71.2673 246.828 125.387C246.828 179.506 290.7 223.378 344.82 223.378Z" fill="#F2F2F2"/>
<path d="M378.08 404.966H302.81C299.807 404.962 296.929 403.768 294.806 401.645C292.683 399.522 291.489 396.643 291.485 393.641V331.587C291.489 328.584 292.683 325.706 294.806 323.583C296.929 321.46 299.807 320.266 302.81 320.262H378.08C381.083 320.266 383.961 321.46 386.084 323.583C388.207 325.706 389.401 328.584 389.405 331.587V393.641C389.401 396.643 388.207 399.522 386.084 401.645C383.961 403.768 381.083 404.962 378.08 404.966Z" fill="#E6E6E6"/>
<path d="M619.474 404.966H544.204C541.201 404.962 538.323 403.768 536.2 401.645C534.077 399.522 532.883 396.643 532.879 393.641V331.587C532.883 328.584 534.077 325.706 536.2 323.583C538.323 321.46 541.201 320.266 544.204 320.262H619.474C622.477 320.266 625.355 321.46 627.478 323.583C629.601 325.706 630.795 328.584 630.799 331.587V393.641C630.796 396.643 629.601 399.522 627.478 401.645C625.355 403.768 622.477 404.962 619.474 404.966Z" fill="#E6E6E6"/>
<path d="M230.088 248.996V208.559C230.088 205.452 230.909 202.401 232.468 199.714C234.027 197.028 236.268 194.801 238.965 193.259L463.641 64.8458C466.43 63.2518 469.601 62.4504 472.813 62.5284C476.024 62.6063 479.153 63.5606 481.861 65.288L682.309 193.138C684.806 194.73 686.861 196.926 688.285 199.523C689.708 202.12 690.455 205.033 690.455 207.995V248.996C690.455 253.669 688.598 258.151 685.293 261.456C681.989 264.761 677.506 266.617 672.833 266.617H247.71C243.036 266.617 238.554 264.761 235.249 261.456C231.944 258.151 230.088 253.669 230.088 248.996Z" fill="#7FD5B9"/>
<path opacity="0.2" d="M672.833 248.614H247.709C243.036 248.614 238.554 246.757 235.249 243.453C231.944 240.148 230.088 235.666 230.088 230.992V246.992C230.088 251.666 231.944 256.148 235.249 259.453C238.554 262.757 243.036 264.614 247.709 264.614H672.833C677.507 264.614 681.989 262.757 685.293 259.453C688.598 256.148 690.455 251.666 690.455 246.992V230.992C690.455 235.666 688.598 240.148 685.293 243.453C681.989 246.757 677.507 248.614 672.833 248.614Z" fill="black"/>
<path d="M707.35 386.99C707.35 355.98 732.488 282.396 763.498 282.396C794.507 282.396 819.645 355.98 819.645 386.99C819.645 401.881 813.73 416.162 803.2 426.692C792.67 437.222 778.389 443.137 763.498 443.137C748.606 443.137 734.325 437.222 723.795 426.692C713.266 416.162 707.35 401.881 707.35 386.99Z" fill="#F2F2F2"/>
<path d="M763.498 523.219C763.232 523.218 762.978 523.113 762.79 522.926C762.603 522.738 762.498 522.484 762.498 522.219V320.608C762.498 320.342 762.603 320.088 762.79 319.901C762.978 319.713 763.232 319.608 763.498 319.608C763.763 319.608 764.017 319.713 764.205 319.901C764.392 320.088 764.498 320.342 764.498 320.608V522.219C764.498 522.484 764.392 522.738 764.205 522.926C764.017 523.113 763.763 523.218 763.498 523.219Z" fill="#3F3D56"/>
<path d="M763.497 410.013C763.302 410.013 763.11 409.956 762.947 409.848C762.783 409.74 762.655 409.587 762.578 409.407C762.501 409.227 762.479 409.029 762.513 408.836C762.548 408.643 762.639 408.465 762.774 408.324L791.316 378.372C791.407 378.277 791.515 378.2 791.635 378.147C791.755 378.094 791.885 378.065 792.016 378.062C792.147 378.059 792.278 378.082 792.4 378.129C792.523 378.176 792.635 378.247 792.73 378.338C792.825 378.428 792.901 378.537 792.954 378.657C793.008 378.777 793.036 378.906 793.04 379.038C793.043 379.169 793.02 379.3 792.973 379.422C792.925 379.545 792.854 379.657 792.764 379.752L764.222 409.703C764.128 409.802 764.016 409.88 763.891 409.933C763.767 409.986 763.633 410.014 763.497 410.013Z" fill="#3F3D56"/>
<path d="M763.497 359.515C763.248 359.516 763.007 359.422 762.823 359.253L738.157 336.701C738.059 336.613 737.981 336.506 737.925 336.387C737.869 336.268 737.837 336.139 737.831 336.008C737.825 335.876 737.845 335.745 737.889 335.621C737.934 335.497 738.003 335.384 738.092 335.287C738.18 335.19 738.287 335.111 738.407 335.055C738.526 335 738.655 334.968 738.786 334.963C738.918 334.957 739.049 334.977 739.173 335.022C739.296 335.068 739.41 335.137 739.506 335.226L764.172 357.777C764.321 357.913 764.425 358.091 764.471 358.288C764.517 358.484 764.503 358.689 764.43 358.877C764.357 359.065 764.229 359.227 764.062 359.341C763.896 359.454 763.699 359.515 763.497 359.515Z" fill="#3F3D56"/>
<path d="M22.0278 325.291C22.0278 279.675 59.007 171.43 104.623 171.43C150.239 171.43 187.219 279.675 187.219 325.291C187.219 347.197 178.517 368.206 163.027 383.695C147.537 399.185 126.529 407.887 104.623 407.887C82.7175 407.887 61.7091 399.185 46.2195 383.695C30.7298 368.206 22.0278 347.197 22.0278 325.291Z" fill="#7FD5B9"/>
<path d="M104.624 525.219C104.358 525.219 104.104 525.113 103.916 524.926C103.729 524.738 103.624 524.484 103.624 524.219V227.64C103.624 227.375 103.729 227.121 103.916 226.933C104.104 226.746 104.358 226.64 104.624 226.64C104.889 226.64 105.143 226.746 105.331 226.933C105.518 227.121 105.624 227.375 105.624 227.64V524.219C105.624 524.484 105.518 524.738 105.331 524.926C105.143 525.113 104.889 525.219 104.624 525.219Z" fill="#3F3D56"/>
<path d="M104.624 358.689C104.428 358.689 104.236 358.631 104.073 358.523C103.91 358.416 103.781 358.262 103.704 358.082C103.627 357.902 103.605 357.704 103.639 357.511C103.674 357.318 103.765 357.14 103.9 356.999L145.886 312.939C146.069 312.747 146.321 312.635 146.586 312.629C146.851 312.622 147.108 312.722 147.3 312.905C147.492 313.088 147.604 313.339 147.61 313.604C147.617 313.87 147.517 314.126 147.334 314.318L105.348 358.378C105.254 358.477 105.142 358.555 105.017 358.608C104.893 358.661 104.759 358.689 104.624 358.689Z" fill="#3F3D56"/>
<path d="M104.623 284.405C104.373 284.405 104.133 284.312 103.949 284.143L67.6636 250.968C67.4679 250.789 67.3512 250.539 67.3394 250.274C67.3275 250.009 67.4214 249.75 67.6004 249.555C67.7793 249.359 68.0287 249.242 68.2937 249.23C68.5587 249.219 68.8175 249.313 69.0132 249.491L105.298 282.667C105.447 282.803 105.551 282.981 105.597 283.177C105.643 283.373 105.628 283.579 105.555 283.767C105.482 283.955 105.354 284.116 105.188 284.23C105.022 284.344 104.825 284.405 104.623 284.405Z" fill="#3F3D56"/>
<path d="M724.276 523.12C724.37 523.193 724.47 523.259 724.566 523.33H805.876C807.469 516.875 808.032 510.413 805.652 504.801C802.261 496.804 792.226 491.813 784.248 495.247C782.358 496.083 780.711 497.385 779.463 499.033C776.345 493.452 770.753 489.244 764.297 489.249C756.21 489.254 749.485 495.868 747.291 503.508C743.757 497.543 736.777 493.375 729.955 495.168C718.545 498.167 714.94 515.905 724.276 523.12Z" fill="#E6E6E6"/>
<path d="M25.7407 524.905C25.9316 525.053 26.1333 525.186 26.3266 525.33H190.469C193.686 512.299 194.821 499.254 190.017 487.925C183.172 471.782 162.914 461.705 146.809 468.638C142.993 470.325 139.669 472.955 137.149 476.28C130.855 465.014 119.565 456.52 106.534 456.529C90.207 456.54 76.6323 469.892 72.2021 485.315C65.0688 473.274 50.9785 464.859 37.206 468.479C14.1714 474.533 6.89548 510.341 25.7407 524.905Z" fill="#E6E6E6"/>
<path d="M849.963 522.417L0 524.025L0.00378422 526.025L849.967 524.417L849.963 522.417Z" fill="#3F3D56"/>
<path d="M286.814 481.718C287.017 480.928 287.044 480.102 286.893 479.3C286.743 478.498 286.418 477.739 285.942 477.076C285.467 476.413 284.851 475.862 284.14 475.463C283.428 475.063 282.638 474.825 281.824 474.764L250.067 435.06L242.209 442.383L275.757 480.31C275.745 481.684 276.238 483.015 277.141 484.049C278.045 485.084 279.297 485.752 280.66 485.925C282.023 486.099 283.402 485.767 284.536 484.991C285.671 484.216 286.481 483.051 286.814 481.718Z" fill="#FFB8B8"/>
<path d="M256.159 441.367L246.123 449.053C245.837 449.271 245.508 449.426 245.157 449.506C244.807 449.586 244.443 449.589 244.091 449.516C243.739 449.442 243.407 449.294 243.117 449.081C242.827 448.867 242.587 448.594 242.413 448.28L236.299 437.259C235.189 435.792 234.706 433.944 234.956 432.121C235.205 430.298 236.168 428.648 237.632 427.534C239.096 426.419 240.943 425.931 242.766 426.175C244.59 426.42 246.242 427.378 247.361 428.839L256.38 437.583C256.638 437.833 256.84 438.137 256.97 438.472C257.1 438.807 257.157 439.166 257.136 439.525C257.115 439.884 257.017 440.235 256.848 440.552C256.68 440.87 256.445 441.148 256.159 441.367Z" fill="#3F3D56"/>
<path d="M239.304 417.397C246.353 417.397 252.067 411.684 252.067 404.635C252.067 397.587 246.353 391.873 239.304 391.873C232.256 391.873 226.542 397.587 226.542 404.635C226.542 411.684 232.256 417.397 239.304 417.397Z" fill="#FFB8B8"/>
<path d="M266.547 570.182H272.918L272.311 558.259H262.909L266.547 570.182Z" fill="#FFB8B8"/>
<path d="M264.922 568.103L277.468 568.102C278.518 568.102 279.558 568.309 280.528 568.711C281.498 569.112 282.379 569.701 283.122 570.444C283.864 571.186 284.453 572.067 284.855 573.037C285.257 574.007 285.464 575.047 285.464 576.097V576.357L264.923 576.358L264.922 568.103Z" fill="#2F2E41"/>
<path d="M198.626 561.163L204.046 564.511L209.796 554.048L203.238 549.945L198.626 561.163Z" fill="#FFB8B8"/>
<path d="M198.337 558.539L209.01 565.132C209.904 565.684 210.68 566.407 211.294 567.258C211.908 568.11 212.348 569.074 212.59 570.096C212.831 571.118 212.869 572.177 212.701 573.214C212.533 574.25 212.163 575.243 211.611 576.136L211.474 576.357L193.999 565.562L198.337 558.539Z" fill="#2F2E41"/>
<path d="M266.086 566.687C265.613 566.686 265.15 566.542 264.761 566.273C264.371 566.003 264.073 565.622 263.905 565.179L240.862 510.085C240.812 509.951 240.727 509.832 240.614 509.743C240.502 509.654 240.367 509.598 240.224 509.581C240.082 509.564 239.938 509.586 239.807 509.645C239.677 509.705 239.565 509.799 239.485 509.918L207.828 559.787C207.518 560.251 207.052 560.589 206.514 560.739C205.977 560.888 205.403 560.84 204.898 560.602L200.566 558.581C200.011 558.319 199.581 557.851 199.367 557.276C199.153 556.701 199.173 556.065 199.422 555.504L225.357 497.692C224.791 496.314 219.267 482.168 227.754 475.179L227.814 475.142L250.827 464.876L251.407 482.53L274.346 562.118C274.432 562.417 274.458 562.731 274.421 563.041C274.385 563.35 274.286 563.649 274.132 563.92C273.979 564.191 273.772 564.429 273.525 564.619C273.278 564.809 272.995 564.948 272.694 565.027L266.686 566.608C266.49 566.66 266.289 566.686 266.086 566.687Z" fill="#2F2E41"/>
<path d="M251.176 439.053C250.299 435.536 249.057 431.99 247.393 430.354C246.781 429.757 246.205 429.124 245.67 428.457C244.551 427.047 243.142 425.892 241.539 425.072C242.125 424.745 242.469 424.356 242.469 423.937C242.469 422.789 239.91 421.858 236.753 421.858C233.596 421.858 231.037 422.789 231.037 423.937C231.045 424.07 231.079 424.201 231.137 424.321C231.196 424.441 231.277 424.548 231.377 424.637C229.316 425.477 227.525 426.867 226.199 428.655C224.873 430.443 224.063 432.561 223.857 434.778C223.119 442.684 222.904 452.79 225.491 459.183C227.661 464.469 227.833 470.365 225.976 475.769C225.85 476.145 225.835 476.55 225.932 476.935C226.029 477.319 226.234 477.668 226.523 477.94C226.813 478.212 227.174 478.395 227.564 478.468C227.954 478.541 228.357 478.5 228.724 478.351L251.56 469.149C251.944 468.994 252.274 468.728 252.506 468.384C252.738 468.041 252.862 467.636 252.862 467.221V453.245C252.88 448.463 252.314 443.697 251.176 439.053Z" fill="#3F3D56"/>
<path d="M207.483 496.616C208.278 496.432 209.023 496.075 209.665 495.572C210.307 495.068 210.831 494.43 211.2 493.702C211.569 492.974 211.773 492.174 211.8 491.358C211.826 490.543 211.673 489.731 211.352 488.981L229.219 441.864L220.158 439.524L203.632 486.156C202.407 486.78 201.454 487.831 200.953 489.11C200.452 490.389 200.437 491.808 200.912 493.097C201.386 494.386 202.317 495.457 203.529 496.105C204.74 496.754 206.147 496.936 207.483 496.616Z" fill="#FFB8B8"/>
<path d="M229.144 450.804L217.695 445.445C217.369 445.292 217.08 445.071 216.848 444.797C216.615 444.523 216.444 444.202 216.347 443.855C216.249 443.509 216.228 443.146 216.284 442.791C216.339 442.435 216.471 442.096 216.669 441.796L223.627 431.288C224.418 429.628 225.835 428.35 227.567 427.732C229.299 427.114 231.205 427.207 232.868 427.992C234.531 428.776 235.815 430.188 236.44 431.917C237.065 433.646 236.979 435.552 236.201 437.219L232.603 449.255C232.5 449.599 232.324 449.917 232.087 450.188C231.849 450.458 231.557 450.674 231.228 450.821C230.9 450.968 230.544 451.043 230.184 451.04C229.825 451.037 229.47 450.956 229.144 450.804Z" fill="#3F3D56"/>
<path d="M251.027 401.494C251.603 401.562 252.186 401.457 252.701 401.191C253.643 400.575 253.55 399.175 253.232 398.096C252.438 395.509 251.005 393.164 249.066 391.277C247.127 389.39 244.744 388.022 242.136 387.299C240.319 386.816 238.021 386.835 236.981 388.401C234.369 386.661 231.22 385.915 228.105 386.297C224.99 386.68 222.115 388.166 220.002 390.487C217.936 392.91 216.56 395.843 216.015 398.98C214.925 404.323 210.254 415.344 212.841 420.144C214.563 423.339 222.486 420.85 225.837 422.241C227.506 422.967 229.329 423.27 231.143 423.124C232.957 422.977 234.708 422.386 236.239 421.401C237.737 420.367 238.863 418.879 239.451 417.156C240.039 415.433 240.057 413.567 239.503 411.832C238.916 410.558 238.24 409.326 237.479 408.148C236.715 406.955 236.403 405.527 236.6 404.125C237.069 401.99 247.142 401.414 251.027 401.494Z" fill="#2F2E41"/>
<path d="M378.028 453.298C377.761 450.605 376.615 448.513 374.589 447.022C372.564 445.531 369.816 444.786 366.344 444.786C363.986 444.786 361.994 445.119 360.369 445.787C358.745 446.432 357.499 447.334 356.631 448.491C355.785 449.648 355.362 450.961 355.362 452.43C355.318 453.654 355.574 454.722 356.13 455.634C356.709 456.547 357.499 457.337 358.5 458.004C359.501 458.65 360.659 459.217 361.972 459.707C363.285 460.174 364.687 460.575 366.178 460.908L372.32 462.377C375.302 463.045 378.039 463.935 380.531 465.048C383.024 466.16 385.182 467.529 387.007 469.153C388.832 470.778 390.245 472.692 391.246 474.895C392.27 477.098 392.793 479.624 392.815 482.472C392.793 486.656 391.725 490.283 389.611 493.354C387.519 496.403 384.492 498.773 380.531 500.464C376.592 502.134 371.841 502.968 366.278 502.968C360.759 502.968 355.952 502.122 351.857 500.431C347.785 498.74 344.603 496.236 342.31 492.92C340.04 489.582 338.85 485.454 338.739 480.536H352.725C352.881 482.828 353.537 484.742 354.695 486.278C355.874 487.791 357.443 488.937 359.401 489.716C361.382 490.473 363.618 490.851 366.111 490.851C368.559 490.851 370.684 490.495 372.487 489.783C374.311 489.071 375.724 488.08 376.726 486.812C377.727 485.543 378.228 484.086 378.228 482.439C378.228 480.903 377.772 479.613 376.859 478.567C375.969 477.521 374.656 476.631 372.92 475.896C371.207 475.162 369.104 474.494 366.612 473.893L359.168 472.024C353.404 470.622 348.853 468.43 345.515 465.448C342.177 462.466 340.519 458.449 340.541 453.398C340.519 449.259 341.621 445.642 343.846 442.549C346.094 439.456 349.176 437.041 353.092 435.305C357.009 433.57 361.46 432.702 366.445 432.702C371.518 432.702 375.947 433.57 379.73 435.305C383.536 437.041 386.495 439.456 388.609 442.549C390.723 445.642 391.814 449.225 391.881 453.298H378.028ZM402.537 502V433.636H448.603V445.553H416.991V461.843H446.233V473.76H416.991V490.083H448.736V502H402.537ZM460.094 502V433.636H474.548V490.083H503.856V502H460.094ZM513.428 502V433.636H527.882V490.083H557.19V502H513.428Z" fill="#009967"/>
</g>
<defs>
<clipPath id="clip0_76_548">
<rect width="850" height="576" fill="white"/>
</clipPath>
</defs>
</svg>
